<svg width="17" height="21" viewBox="0 0 17 21" fill="none" xmlns="http://www.w3.org/2000/svg">
<path id="Icon" d="M1.21106 4.17508L0.767107 3.27903C0.426532 3.44777 0.21106 3.79499 0.21106 4.17508H1.21106ZM8.47712 19.7751L7.94663 20.6228C8.27114 20.8258 8.68309 20.8258 9.0076 20.6228L8.47712 19.7751ZM15.7432 4.17508H16.7432C16.7432 3.79499 16.5277 3.44777 16.1871 3.27903L15.7432 4.17508ZM6.85238 1.38006L6.40842 0.484012L6.85238 1.38006ZM10.1019 1.38006L10.5458 0.484011L10.1019 1.38006ZM11.2019 10.2752C11.7542 10.2752 12.2019 9.8275 12.2019 9.27522C12.2019 8.72293 11.7542 8.27522 11.2019 8.27522V10.2752ZM5.75234 8.27522C5.20006 8.27522 4.75234 8.72293 4.75234 9.27522C4.75234 9.8275 5.20006 10.2752 5.75234 10.2752V8.27522ZM7.47712 11.9751C7.47712 12.5274 7.92483 12.9751 8.47712 12.9751C9.0294 12.9751 9.47712 12.5274 9.47712 11.9751H7.47712ZM9.47712 6.57508C9.47712 6.02279 9.0294 5.57508 8.47712 5.57508C7.92483 5.57508 7.47712 6.02279 7.47712 6.57508H9.47712ZM6.40842 0.484012L0.767107 3.27903L1.65501 5.07113L7.29633 2.27611L6.40842 0.484012ZM0.21106 4.17508V12.2031H2.21106V4.17508H0.21106ZM0.21106 12.2031C0.21106 13.686 1.08377 15.0891 2.37516 16.4056C3.68789 17.7438 5.58137 19.1426 7.94663 20.6228L9.0076 18.9274C6.69271 17.4787 4.95317 16.1776 3.8029 15.005C2.63131 13.8107 2.21106 12.8922 2.21106 12.2031H0.21106ZM9.0076 20.6228C11.3337 19.1671 13.2393 17.9154 14.5572 16.6522C15.902 15.3631 16.7432 13.9588 16.7432 12.2031H14.7432C14.7432 13.2193 14.2913 14.1366 13.1732 15.2084C12.0281 16.3059 10.3007 17.4542 7.94663 18.9274L9.0076 20.6228ZM16.7432 12.2031C16.7432 12.1977 16.7432 12.1922 16.7432 12.1868C16.7432 12.1814 16.7432 12.1759 16.7432 12.1705C16.7432 12.165 16.7432 12.1596 16.7432 12.1541C16.7432 12.1486 16.7432 12.1431 16.7432 12.1377C16.7432 12.1322 16.7432 12.1267 16.7432 12.1212C16.7432 12.1157 16.7432 12.1101 16.7432 12.1046C16.7432 12.0991 16.7432 12.0936 16.7432 12.088C16.7432 12.0825 16.7432 12.0769 16.7432 12.0714C16.7432 12.0658 16.7432 12.0602 16.7432 12.0546C16.7432 12.0491 16.7432 12.0435 16.7432 12.0379C16.7432 12.0323 16.7432 12.0267 16.7432 12.0211C16.7432 12.0154 16.7432 12.0098 16.7432 12.0042C16.7432 11.9985 16.7432 11.9929 16.7432 11.9873C16.7432 11.9816 16.7432 11.9759 16.7432 11.9703C16.7432 11.9646 16.7432 11.9589 16.7432 11.9532C16.7432 11.9476 16.7432 11.9419 16.7432 11.9362C16.7432 11.9305 16.7432 11.9247 16.7432 11.919C16.7432 11.9133 16.7432 11.9076 16.7432 11.9018C16.7432 11.8961 16.7432 11.8904 16.7432 11.8846C16.7432 11.8789 16.7432 11.8731 16.7432 11.8673C16.7432 11.8616 16.7432 11.8558 16.7432 11.85C16.7432 11.8442 16.7432 11.8384 16.7432 11.8326C16.7432 11.8268 16.7432 11.821 16.7432 11.8152C16.7432 11.8094 16.7432 11.8035 16.7432 11.7977C16.7432 11.7919 16.7432 11.786 16.7432 11.7802C16.7432 11.7743 16.7432 11.7684 16.7432 11.7626C16.7432 11.7567 16.7432 11.7508 16.7432 11.745C16.7432 11.7391 16.7432 11.7332 16.7432 11.7273C16.7432 11.7214 16.7432 11.7155 16.7432 11.7096C16.7432 11.7036 16.7432 11.6977 16.7432 11.6918C16.7432 11.6859 16.7432 11.6799 16.7432 11.674C16.7432 11.668 16.7432 11.6621 16.7432 11.6561C16.7432 11.6501 16.7432 11.6442 16.7432 11.6382C16.7432 11.6322 16.7432 11.6262 16.7432 11.6202C16.7432 11.6143 16.7432 11.6083 16.7432 11.6023C16.7432 11.5962 16.7432 11.5902 16.7432 11.5842C16.7432 11.5782 16.7432 11.5722 16.7432 11.5661C16.7432 11.5601 16.7432 11.554 16.7432 11.548C16.7432 11.5419 16.7432 11.5359 16.7432 11.5298C16.7432 11.5238 16.7432 11.5177 16.7432 11.5116C16.7432 11.5055 16.7432 11.4994 16.7432 11.4933C16.7432 11.4872 16.7432 11.4811 16.7432 11.475C16.7432 11.4689 16.7432 11.4628 16.7432 11.4567C16.7432 11.4506 16.7432 11.4444 16.7432 11.4383C16.7432 11.4322 16.7432 11.426 16.7432 11.4199C16.7432 11.4137 16.7432 11.4076 16.7432 11.4014C16.7432 11.3952 16.7432 11.3891 16.7432 11.3829C16.7432 11.3767 16.7432 11.3705 16.7432 11.3643C16.7432 11.3581 16.7432 11.3519 16.7432 11.3457C16.7432 11.3395 16.7432 11.3333 16.7432 11.3271C16.7432 11.3209 16.7432 11.3147 16.7432 11.3084C16.7432 11.3022 16.7432 11.296 16.7432 11.2897C16.7432 11.2835 16.7432 11.2772 16.7432 11.271C16.7432 11.2647 16.7432 11.2585 16.7432 11.2522C16.7432 11.2459 16.7432 11.2396 16.7432 11.2334C16.7432 11.2271 16.7432 11.2208 16.7432 11.2145C16.7432 11.2082 16.7432 11.2019 16.7432 11.1956C16.7432 11.1893 16.7432 11.183 16.7432 11.1767C16.7432 11.1703 16.7432 11.164 16.7432 11.1577C16.7432 11.1513 16.7432 11.145 16.7432 11.1387C16.7432 11.1323 16.7432 11.126 16.7432 11.1196C16.7432 11.1133 16.7432 11.1069 16.7432 11.1005C16.7432 11.0942 16.7432 11.0878 16.7432 11.0814C16.7432 11.075 16.7432 11.0686 16.7432 11.0623C16.7432 11.0559 16.7432 11.0495 16.7432 11.0431C16.7432 11.0367 16.7432 11.0303 16.7432 11.0238C16.7432 11.0174 16.7432 11.011 16.7432 11.0046C16.7432 10.9982 16.7432 10.9917 16.7432 10.9853C16.7432 10.9789 16.7432 10.9724 16.7432 10.966C16.7432 10.9595 16.7432 10.9531 16.7432 10.9466C16.7432 10.9402 16.7432 10.9337 16.7432 10.9272C16.7432 10.9208 16.7432 10.9143 16.7432 10.9078C16.7432 10.9013 16.7432 10.8948 16.7432 10.8883C16.7432 10.8819 16.7432 10.8754 16.7432 10.8689C16.7432 10.8624 16.7432 10.8559 16.7432 10.8493C16.7432 10.8428 16.7432 10.8363 16.7432 10.8298C16.7432 10.8233 16.7432 10.8167 16.7432 10.8102C16.7432 10.8037 16.7432 10.7971 16.7432 10.7906C16.7432 10.7841 16.7432 10.7775 16.7432 10.771C16.7432 10.7644 16.7432 10.7579 16.7432 10.7513C16.7432 10.7447 16.7432 10.7382 16.7432 10.7316C16.7432 10.725 16.7432 10.7185 16.7432 10.7119C16.7432 10.7053 16.7432 10.6987 16.7432 10.6921C16.7432 10.6855 16.7432 10.6789 16.7432 10.6723C16.7432 10.6657 16.7432 10.6591 16.7432 10.6525C16.7432 10.6459 16.7432 10.6393 16.7432 10.6327C16.7432 10.6261 16.7432 10.6194 16.7432 10.6128C16.7432 10.6062 16.7432 10.5996 16.7432 10.5929C16.7432 10.5863 16.7432 10.5797 16.7432 10.573C16.7432 10.5664 16.7432 10.5597 16.7432 10.5531C16.7432 10.5464 16.7432 10.5398 16.7432 10.5331C16.7432 10.5264 16.7432 10.5198 16.7432 10.5131C16.7432 10.5064 16.7432 10.4998 16.7432 10.4931C16.7432 10.4864 16.7432 10.4797 16.7432 10.473C16.7432 10.4663 16.7432 10.4597 16.7432 10.453C16.7432 10.4463 16.7432 10.4396 16.7432 10.4329C16.7432 10.4262 16.7432 10.4195 16.7432 10.4127C16.7432 10.406 16.7432 10.3993 16.7432 10.3926C16.7432 10.3859 16.7432 10.3792 16.7432 10.3724C16.7432 10.3657 16.7432 10.359 16.7432 10.3523C16.7432 10.3455 16.7432 10.3388 16.7432 10.332C16.7432 10.3253 16.7432 10.3186 16.7432 10.3118C16.7432 10.3051 16.7432 10.2983 16.7432 10.2916C16.7432 10.2848 16.7432 10.2781 16.7432 10.2713C16.7432 10.2645 16.7432 10.2578 16.7432 10.251C16.7432 10.2442 16.7432 10.2375 16.7432 10.2307C16.7432 10.2239 16.7432 10.2171 16.7432 10.2103C16.7432 10.2036 16.7432 10.1968 16.7432 10.19C16.7432 10.1832 16.7432 10.1764 16.7432 10.1696C16.7432 10.1628 16.7432 10.156 16.7432 10.1492C16.7432 10.1424 16.7432 10.1356 16.7432 10.1288C16.7432 10.122 16.7432 10.1152 16.7432 10.1084C16.7432 10.1016 16.7432 10.0948 16.7432 10.0879C16.7432 10.0811 16.7432 10.0743 16.7432 10.0675C16.7432 10.0606 16.7432 10.0538 16.7432 10.047C16.7432 10.0402 16.7432 10.0333 16.7432 10.0265C16.7432 10.0196 16.7432 10.0128 16.7432 10.006C16.7432 9.99912 16.7432 9.99228 16.7432 9.98543C16.7432 9.97858 16.7432 9.97173 16.7432 9.96488C16.7432 9.95803 16.7432 9.95117 16.7432 9.94431C16.7432 9.93746 16.7432 9.9306 16.7432 9.92373C16.7432 9.91687 16.7432 9.91001 16.7432 9.90314C16.7432 9.89627 16.7432 9.8894 16.7432 9.88253C16.7432 9.87565 16.7432 9.86878 16.7432 9.8619C16.7432 9.85503 16.7432 9.84815 16.7432 9.84126C16.7432 9.83438 16.7432 9.8275 16.7432 9.82061C16.7432 9.81372 16.7432 9.80684 16.7432 9.79994C16.7432 9.79305 16.7432 9.78616 16.7432 9.77927C16.7432 9.77237 16.7432 9.76547 16.7432 9.75857C16.7432 9.75168 16.7432 9.74477 16.7432 9.73787C16.7432 9.73097 16.7432 9.72406 16.7432 9.71716C16.7432 9.71025 16.7432 9.70334 16.7432 9.69643C16.7432 9.68952 16.7432 9.68261 16.7432 9.67569C16.7432 9.66878 16.7432 9.66186 16.7432 9.65494C16.7432 9.64802 16.7432 9.6411 16.7432 9.63418C16.7432 9.62726 16.7432 9.62034 16.7432 9.61341C16.7432 9.60649 16.7432 9.59956 16.7432 9.59263C16.7432 9.58571 16.7432 9.57878 16.7432 9.57185C16.7432 9.56491 16.7432 9.55798 16.7432 9.55105C16.7432 9.54411 16.7432 9.53718 16.7432 9.53024C16.7432 9.5233 16.7432 9.51637 16.7432 9.50943C16.7432 9.50249 16.7432 9.49554 16.7432 9.4886C16.7432 9.48166 16.7432 9.47472 16.7432 9.46777C16.7432 9.46083 16.7432 9.45388 16.7432 9.44693C16.7432 9.43999 16.7432 9.43304 16.7432 9.42609C16.7432 9.41914 16.7432 9.41219 16.7432 9.40524C16.7432 9.39828 16.7432 9.39133 16.7432 9.38438C16.7432 9.37742 16.7432 9.37047 16.7432 9.36351C16.7432 9.35656 16.7432 9.3496 16.7432 9.34264C16.7432 9.33569 16.7432 9.32873 16.7432 9.32177C16.7432 9.31481 16.7432 9.30785 16.7432 9.30089C16.7432 9.29393 16.7432 9.28697 16.7432 9.28C16.7432 9.27304 16.7432 9.26608 16.7432 9.25911C16.7432 9.25215 16.7432 9.24519 16.7432 9.23822C16.7432 9.23126 16.7432 9.22429 16.7432 9.21732C16.7432 9.21036 16.7432 9.20339 16.7432 9.19642C16.7432 9.18946 16.7432 9.18249 16.7432 9.17552C16.7432 9.16855 16.7432 9.16159 16.7432 9.15462C16.7432 9.14765 16.7432 9.14068 16.7432 9.13371C16.7432 9.12674 16.7432 9.11977 16.7432 9.1128C16.7432 9.10583 16.7432 9.09886 16.7432 9.09189C16.7432 9.08492 16.7432 9.07795 16.7432 9.07098C16.7432 9.06401 16.7432 9.05704 16.7432 9.05007C16.7432 9.04309 16.7432 9.03612 16.7432 9.02915C16.7432 9.02218 16.7432 9.01521 16.7432 9.00824C16.7432 9.00127 16.7432 8.9943 16.7432 8.98733C16.7432 8.98035 16.7432 8.97338 16.7432 8.96641C16.7432 8.95944 16.7432 8.95247 16.7432 8.9455C16.7432 8.93853 16.7432 8.93156 16.7432 8.92459C16.7432 8.91762 16.7432 8.91065 16.7432 8.90368C16.7432 8.89671 16.7432 8.88975 16.7432 8.88278C16.7432 8.87581 16.7432 8.86884 16.7432 8.86187C16.7432 8.8549 16.7432 8.84794 16.7432 8.84097C16.7432 8.834 16.7432 8.82704 16.7432 8.82007C16.7432 8.81311 16.7432 8.80614 16.7432 8.79918C16.7432 8.79221 16.7432 8.78525 16.7432 8.77829C16.7432 8.77132 16.7432 8.76436 16.7432 8.7574C16.7432 8.75044 16.7432 8.74347 16.7432 8.73651C16.7432 8.72955 16.7432 8.72259 16.7432 8.71564C16.7432 8.70868 16.7432 8.70172 16.7432 8.69476C16.7432 8.68781 16.7432 8.68085 16.7432 8.67389C16.7432 8.66694 16.7432 8.65999 16.7432 8.65303C16.7432 8.64608 16.7432 8.63913 16.7432 8.63218C16.7432 8.62523 16.7432 8.61828 16.7432 8.61133C16.7432 8.60438 16.7432 8.59743 16.7432 8.59048C16.7432 8.58354 16.7432 8.57659 16.7432 8.56965C16.7432 8.56271 16.7432 8.55576 16.7432 8.54882C16.7432 8.54188 16.7432 8.53494 16.7432 8.528C16.7432 8.52106 16.7432 8.51412 16.7432 8.50719C16.7432 8.50025 16.7432 8.49332 16.7432 8.48638C16.7432 8.47945 16.7432 8.47252 16.7432 8.46559C16.7432 8.45866 16.7432 8.45173 16.7432 8.44481C16.7432 8.43788 16.7432 8.43095 16.7432 8.42403C16.7432 8.41711 16.7432 8.41018 16.7432 8.40326C16.7432 8.39634 16.7432 8.38942 16.7432 8.38251C16.7432 8.37559 16.7432 8.36868 16.7432 8.36176C16.7432 8.35485 16.7432 8.34794 16.7432 8.34103C16.7432 8.33412 16.7432 8.32721 16.7432 8.32031C16.7432 8.3134 16.7432 8.3065 16.7432 8.29959C16.7432 8.29269 16.7432 8.28579 16.7432 8.2789C16.7432 8.272 16.7432 8.2651 16.7432 8.25821C16.7432 8.25132 16.7432 8.24442 16.7432 8.23754C16.7432 8.23065 16.7432 8.22376 16.7432 8.21687C16.7432 8.20999 16.7432 8.20311 16.7432 8.19623C16.7432 8.18935 16.7432 8.18247 16.7432 8.17559C16.7432 8.16872 16.7432 8.16184 16.7432 8.15497C16.7432 8.1481 16.7432 8.14123 16.7432 8.13437C16.7432 8.1275 16.7432 8.12064 16.7432 8.11378C16.7432 8.10692 16.7432 8.10006 16.7432 8.0932C16.7432 8.08635 16.7432 8.07949 16.7432 8.07264C16.7432 8.06579 16.7432 8.05894 16.7432 8.0521C16.7432 8.04525 16.7432 8.03841 16.7432 8.03157C16.7432 8.02473 16.7432 8.01789 16.7432 8.01106C16.7432 8.00422 16.7432 7.99739 16.7432 7.99056C16.7432 7.98373 16.7432 7.97691 16.7432 7.97009C16.7432 7.96326 16.7432 7.95644 16.7432 7.94963C16.7432 7.94281 16.7432 7.93599 16.7432 7.92918C16.7432 7.92237 16.7432 7.91556 16.7432 7.90876C16.7432 7.90195 16.7432 7.89515 16.7432 7.88835C16.7432 7.88156 16.7432 7.87476 16.7432 7.86797C16.7432 7.86118 16.7432 7.85439 16.7432 7.8476C16.7432 7.84082 16.7432 7.83403 16.7432 7.82725C16.7432 7.82047 16.7432 7.8137 16.7432 7.80693C16.7432 7.80015 16.7432 7.79338 16.7432 7.78662C16.7432 7.77985 16.7432 7.77309 16.7432 7.76633C16.7432 7.75957 16.7432 7.75282 16.7432 7.74607C16.7432 7.73931 16.7432 7.73257 16.7432 7.72582C16.7432 7.71908 16.7432 7.71234 16.7432 7.7056C16.7432 7.69886 16.7432 7.69213 16.7432 7.6854C16.7432 7.67867 16.7432 7.67194 16.7432 7.66522C16.7432 7.6585 16.7432 7.65178 16.7432 7.64507C16.7432 7.63835 16.7432 7.63164 16.7432 7.62493C16.7432 7.61823 16.7432 7.61152 16.7432 7.60482C16.7432 7.59812 16.7432 7.59143 16.7432 7.58474C16.7432 7.57805 16.7432 7.57136 16.7432 7.56468C16.7432 7.55799 16.7432 7.55132 16.7432 7.54464C16.7432 7.53797 16.7432 7.5313 16.7432 7.52463C16.7432 7.51796 16.7432 7.5113 16.7432 7.50464C16.7432 7.49798 16.7432 7.49133 16.7432 7.48468C16.7432 7.47803 16.7432 7.47139 16.7432 7.46475C16.7432 7.45811 16.7432 7.45147 16.7432 7.44484C16.7432 7.43821 16.7432 7.43158 16.7432 7.42495C16.7432 7.41833 16.7432 7.41171 16.7432 7.4051C16.7432 7.39849 16.7432 7.39188 16.7432 7.38527C16.7432 7.37867 16.7432 7.37207 16.7432 7.36547C16.7432 7.35887 16.7432 7.35228 16.7432 7.3457C16.7432 7.33911 16.7432 7.33253 16.7432 7.32595C16.7432 7.31938 16.7432 7.3128 16.7432 7.30624C16.7432 7.29967 16.7432 7.29311 16.7432 7.28655C16.7432 7.27999 16.7432 7.27344 16.7432 7.26689C16.7432 7.26034 16.7432 7.2538 16.7432 7.24726C16.7432 7.24073 16.7432 7.23419 16.7432 7.22766C16.7432 7.22114 16.7432 7.21461 16.7432 7.2081C16.7432 7.20158 16.7432 7.19507 16.7432 7.18856C16.7432 7.18205 16.7432 7.17555 16.7432 7.16905C16.7432 7.16256 16.7432 7.15606 16.7432 7.14958C16.7432 7.14309 16.7432 7.13661 16.7432 7.13014C16.7432 7.12366 16.7432 7.11719 16.7432 7.11072C16.7432 7.10426 16.7432 7.0978 16.7432 7.09135C16.7432 7.08489 16.7432 7.07844 16.7432 7.072C16.7432 7.06556 16.7432 7.05912 16.7432 7.05269C16.7432 7.04626 16.7432 7.03983 16.7432 7.03341C16.7432 7.02699 16.7432 7.02057 16.7432 7.01416C16.7432 7.00775 16.7432 7.00135 16.7432 6.99495C16.7432 6.98855 16.7432 6.98216 16.7432 6.97577C16.7432 6.96939 16.7432 6.96301 16.7432 6.95663C16.7432 6.95026 16.7432 6.94389 16.7432 6.93753C16.7432 6.93116 16.7432 6.92481 16.7432 6.91845C16.7432 6.9121 16.7432 6.90576 16.7432 6.89942C16.7432 6.89308 16.7432 6.88675 16.7432 6.88042C16.7432 6.87409 16.7432 6.86777 16.7432 6.86146C16.7432 6.85514 16.7432 6.84883 16.7432 6.84253C16.7432 6.83623 16.7432 6.82993 16.7432 6.82364C16.7432 6.81735 16.7432 6.81107 16.7432 6.80479C16.7432 6.79851 16.7432 6.79224 16.7432 6.78598C16.7432 6.77971 16.7432 6.77346 16.7432 6.7672C16.7432 6.76095 16.7432 6.75471 16.7432 6.74847C16.7432 6.74223 16.7432 6.736 16.7432 6.72977C16.7432 6.72355 16.7432 6.71733 16.7432 6.71111C16.7432 6.7049 16.7432 6.6987 16.7432 6.6925C16.7432 6.6863 16.7432 6.6801 16.7432 6.67392C16.7432 6.66773 16.7432 6.66155 16.7432 6.65538C16.7432 6.64921 16.7432 6.64304 16.7432 6.63688C16.7432 6.63072 16.7432 6.62457 16.7432 6.61843C16.7432 6.61228 16.7432 6.60614 16.7432 6.60001C16.7432 6.59388 16.7432 6.58776 16.7432 6.58164C16.7432 6.57552 16.7432 6.56941 16.7432 6.56331C16.7432 6.55721 16.7432 6.55111 16.7432 6.54502C16.7432 6.53893 16.7432 6.53285 16.7432 6.52678C16.7432 6.5207 16.7432 6.51464 16.7432 6.50858C16.7432 6.50252 16.7432 6.49646 16.7432 6.49042C16.7432 6.48437 16.7432 6.47833 16.7432 6.4723C16.7432 6.46627 16.7432 6.46025 16.7432 6.45423C16.7432 6.44822 16.7432 6.44221 16.7432 6.43621C16.7432 6.4302 16.7432 6.42421 16.7432 6.41822C16.7432 6.41224 16.7432 6.40626 16.7432 6.40029C16.7432 6.39432 16.7432 6.38835 16.7432 6.3824C16.7432 6.37644 16.7432 6.37049 16.7432 6.36455C16.7432 6.35861 16.7432 6.35268 16.7432 6.34676C16.7432 6.34083 16.7432 6.33491 16.7432 6.329C16.7432 6.32309 16.7432 6.31719 16.7432 6.3113C16.7432 6.3054 16.7432 6.29952 16.7432 6.29364C16.7432 6.28776 16.7432 6.28189 16.7432 6.27603C16.7432 6.27017 16.7432 6.26432 16.7432 6.25847C16.7432 6.25262 16.7432 6.24679 16.7432 6.24096C16.7432 6.23513 16.7432 6.2293 16.7432 6.22349C16.7432 6.21768 16.7432 6.21187 16.7432 6.20608C16.7432 6.20028 16.7432 6.19449 16.7432 6.18871C16.7432 6.18293 16.7432 6.17716 16.7432 6.17139C16.7432 6.16563 16.7432 6.15987 16.7432 6.15413C16.7432 6.14838 16.7432 6.14264 16.7432 6.13691C16.7432 6.13118 16.7432 6.12546 16.7432 6.11974C16.7432 6.11403 16.7432 6.10833 16.7432 6.10263C16.7432 6.09693 16.7432 6.09125 16.7432 6.08557C16.7432 6.07989 16.7432 6.07422 16.7432 6.06856C16.7432 6.06289 16.7432 6.05724 16.7432 6.0516C16.7432 6.04595 16.7432 6.04032 16.7432 6.03469C16.7432 6.02906 16.7432 6.02345 16.7432 6.01784C16.7432 6.01223 16.7432 6.00663 16.7432 6.00104C16.7432 5.99544 16.7432 5.98986 16.7432 5.98429C16.7432 5.97872 16.7432 5.97315 16.7432 5.9676C16.7432 5.96204 16.7432 5.95649 16.7432 5.95096C16.7432 5.94542 16.7432 5.93989 16.7432 5.93437C16.7432 5.92885 16.7432 5.92334 16.7432 5.91784C16.7432 5.91234 16.7432 5.90685 16.7432 5.90137C16.7432 5.89589 16.7432 5.89041 16.7432 5.88495C16.7432 5.87949 16.7432 5.87403 16.7432 5.86859C16.7432 5.86314 16.7432 5.85771 16.7432 5.85228C16.7432 5.84686 16.7432 5.84144 16.7432 5.83603C16.7432 5.83063 16.7432 5.82523 16.7432 5.81984C16.7432 5.81445 16.7432 5.80907 16.7432 5.8037C16.7432 5.79834 16.7432 5.79298 16.7432 5.78763C16.7432 5.78228 16.7432 5.77694 16.7432 5.77161C16.7432 5.76628 16.7432 5.76096 16.7432 5.75565C16.7432 5.75033 16.7432 5.74503 16.7432 5.73974C16.7432 5.73445 16.7432 5.72917 16.7432 5.7239C16.7432 5.71863 16.7432 5.71337 16.7432 5.70811C16.7432 5.70286 16.7432 5.69762 16.7432 5.69239C16.7432 5.68716 16.7432 5.68194 16.7432 5.67673C16.7432 5.67151 16.7432 5.66631 16.7432 5.66112C16.7432 5.65593 16.7432 5.65075 16.7432 5.64558C16.7432 5.64041 16.7432 5.63525 16.7432 5.6301C16.7432 5.62495 16.7432 5.61981 16.7432 5.61468C16.7432 5.60955 16.7432 5.60443 16.7432 5.59932C16.7432 5.59421 16.7432 5.58911 16.7432 5.58402C16.7432 5.57893 16.7432 5.57385 16.7432 5.56879C16.7432 5.56372 16.7432 5.55866 16.7432 5.55362C16.7432 5.54857 16.7432 5.54353 16.7432 5.53851C16.7432 5.53348 16.7432 5.52847 16.7432 5.52346C16.7432 5.51846 16.7432 5.51347 16.7432 5.50848C16.7432 5.5035 16.7432 5.49853 16.7432 5.49357C16.7432 5.48861 16.7432 5.48366 16.7432 5.47872C16.7432 5.47378 16.7432 5.46885 16.7432 5.46393C16.7432 5.45901 16.7432 5.4541 16.7432 5.44921C16.7432 5.44431 16.7432 5.43943 16.7432 5.43455C16.7432 5.42968 16.7432 5.42481 16.7432 5.41996C16.7432 5.41511 16.7432 5.41027 16.7432 5.40544C16.7432 5.40061 16.7432 5.39579 16.7432 5.39098C16.7432 5.38617 16.7432 5.38138 16.7432 5.37659C16.7432 5.37181 16.7432 5.36703 16.7432 5.36227C16.7432 5.35751 16.7432 5.35276 16.7432 5.34802C16.7432 5.34328 16.7432 5.33855 16.7432 5.33383C16.7432 5.32911 16.7432 5.32441 16.7432 5.31971C16.7432 5.31502 16.7432 5.31033 16.7432 5.30566C16.7432 5.30099 16.7432 5.29633 16.7432 5.29168C16.7432 5.28703 16.7432 5.28239 16.7432 5.27777C16.7432 5.27314 16.7432 5.26853 16.7432 5.26393C16.7432 5.25933 16.7432 5.25474 16.7432 5.25016C16.7432 5.24558 16.7432 5.24101 16.7432 5.23646C16.7432 5.2319 16.7432 5.22736 16.7432 5.22283C16.7432 5.2183 16.7432 5.21378 16.7432 5.20927C16.7432 5.20476 16.7432 5.20026 16.7432 5.19578C16.7432 5.1913 16.7432 5.18683 16.7432 5.18237C16.7432 5.17791 16.7432 5.17346 16.7432 5.16902C16.7432 5.16459 16.7432 5.16016 16.7432 5.15575C16.7432 5.15134 16.7432 5.14694 16.7432 5.14256C16.7432 5.13817 16.7432 5.13379 16.7432 5.12943C16.7432 5.12507 16.7432 5.12072 16.7432 5.11638C16.7432 5.11204 16.7432 5.10772 16.7432 5.1034C16.7432 5.09909 16.7432 5.09479 16.7432 5.0905C16.7432 5.08621 16.7432 5.08194 16.7432 5.07767C16.7432 5.07341 16.7432 5.06916 16.7432 5.06492C16.7432 5.06068 16.7432 5.05646 16.7432 5.05224C16.7432 5.04803 16.7432 5.04383 16.7432 5.03964C16.7432 5.03545 16.7432 5.03128 16.7432 5.02711C16.7432 5.02295 16.7432 5.0188 16.7432 5.01467C16.7432 5.01053 16.7432 5.0064 16.7432 5.00229C16.7432 4.99818 16.7432 4.99408 16.7432 4.99C16.7432 4.98591 16.7432 4.98184 16.7432 4.97778C16.7432 4.97372 16.7432 4.96967 16.7432 4.96564C16.7432 4.9616 16.7432 4.95758 16.7432 4.95357C16.7432 4.94957 16.7432 4.94557 16.7432 4.94159C16.7432 4.93761 16.7432 4.93364 16.7432 4.92969C16.7432 4.92573 16.7432 4.92179 16.7432 4.91786C16.7432 4.91393 16.7432 4.91001 16.7432 4.90611C16.7432 4.90221 16.7432 4.89832 16.7432 4.89445C16.7432 4.89057 16.7432 4.88671 16.7432 4.88286C16.7432 4.87901 16.7432 4.87517 16.7432 4.87135C16.7432 4.86753 16.7432 4.86372 16.7432 4.85993C16.7432 4.85613 16.7432 4.85235 16.7432 4.84858C16.7432 4.84482 16.7432 4.84106 16.7432 4.83732C16.7432 4.83358 16.7432 4.82985 16.7432 4.82614C16.7432 4.82243 16.7432 4.81873 16.7432 4.81504C16.7432 4.81136 16.7432 4.80768 16.7432 4.80402C16.7432 4.80037 16.7432 4.79672 16.7432 4.79309C16.7432 4.78946 16.7432 4.78584 16.7432 4.78224C16.7432 4.77864 16.7432 4.77505 16.7432 4.77148C16.7432 4.7679 16.7432 4.76434 16.7432 4.76079C16.7432 4.75725 16.7432 4.75371 16.7432 4.7502C16.7432 4.74668 16.7432 4.74317 16.7432 4.73968C16.7432 4.73619 16.7432 4.73272 16.7432 4.72925C16.7432 4.72579 16.7432 4.72235 16.7432 4.71891C16.7432 4.71548 16.7432 4.71206 16.7432 4.70865C16.7432 4.70525 16.7432 4.70186 16.7432 4.69848C16.7432 4.69511 16.7432 4.69175 16.7432 4.6884C16.7432 4.68505 16.7432 4.68172 16.7432 4.6784C16.7432 4.67508 16.7432 4.67178 16.7432 4.66849C16.7432 4.6652 16.7432 4.66193 16.7432 4.65867C16.7432 4.65541 16.7432 4.65216 16.7432 4.64893C16.7432 4.6457 16.7432 4.64248 16.7432 4.63928C16.7432 4.63608 16.7432 4.6329 16.7432 4.62972C16.7432 4.62655 16.7432 4.6234 16.7432 4.62025C16.7432 4.61711 16.7432 4.61399 16.7432 4.61087C16.7432 4.60776 16.7432 4.60466 16.7432 4.60158C16.7432 4.5985 16.7432 4.59543 16.7432 4.59238C16.7432 4.58933 16.7432 4.58629 16.7432 4.58327C16.7432 4.58025 16.7432 4.57724 16.7432 4.57425C16.7432 4.57126 16.7432 4.56828 16.7432 4.56532C16.7432 4.56236 16.7432 4.55941 16.7432 4.55648C16.7432 4.55355 16.7432 4.55063 16.7432 4.54773C16.7432 4.54483 16.7432 4.54195 16.7432 4.53908C16.7432 4.53621 16.7432 4.53335 16.7432 4.53051C16.7432 4.52767 16.7432 4.52485 16.7432 4.52204C16.7432 4.51923 16.7432 4.51644 16.7432 4.51367C16.7432 4.51089 16.7432 4.50813 16.7432 4.50538C16.7432 4.50264 16.7432 4.49991 16.7432 4.49719C16.7432 4.49448 16.7432 4.49178 16.7432 4.48909C16.7432 4.48641 16.7432 4.48374 16.7432 4.48109C16.7432 4.47844 16.7432 4.4758 16.7432 4.47318C16.7432 4.47056 16.7432 4.46796 16.7432 4.46537C16.7432 4.46278 16.7432 4.46021 16.7432 4.45765C16.7432 4.4551 16.7432 4.45256 16.7432 4.45003C16.7432 4.44751 16.7432 4.445 16.7432 4.44251C16.7432 4.44002 16.7432 4.43754 16.7432 4.43508C16.7432 4.43262 16.7432 4.43018 16.7432 4.42775C16.7432 4.42532 16.7432 4.42291 16.7432 4.42051C16.7432 4.41812 16.7432 4.41574 16.7432 4.41338C16.7432 4.41101 16.7432 4.40867 16.7432 4.40634C16.7432 4.40401 16.7432 4.40169 16.7432 4.39939C16.7432 4.3971 16.7432 4.39482 16.7432 4.39255C16.7432 4.39029 16.7432 4.38804 16.7432 4.38581C16.7432 4.38358 16.7432 4.38136 16.7432 4.37916C16.7432 4.37696 16.7432 4.37478 16.7432 4.37262C16.7432 4.37045 16.7432 4.3683 16.7432 4.36617C16.7432 4.36404 16.7432 4.36192 16.7432 4.35983C16.7432 4.35773 16.7432 4.35565 16.7432 4.35358C16.7432 4.35152 16.7432 4.34947 16.7432 4.34744C16.7432 4.34541 16.7432 4.34339 16.7432 4.3414C16.7432 4.3394 16.7432 4.33742 16.7432 4.33545C16.7432 4.33349 16.7432 4.33154 16.7432 4.32962C16.7432 4.32769 16.7432 4.32577 16.7432 4.32388C16.7432 4.32198 16.7432 4.32011 16.7432 4.31824C16.7432 4.31638 16.7432 4.31454 16.7432 4.31271C16.7432 4.31089 16.7432 4.30908 16.7432 4.30729C16.7432 4.30549 16.7432 4.30372 16.7432 4.30196C16.7432 4.3002 16.7432 4.29847 16.7432 4.29674C16.7432 4.29502 16.7432 4.29331 16.7432 4.29163C16.7432 4.28994 16.7432 4.28827 16.7432 4.28662C16.7432 4.28496 16.7432 4.28333 16.7432 4.28171C16.7432 4.28009 16.7432 4.27849 16.7432 4.27691C16.7432 4.27533 16.7432 4.27376 16.7432 4.27222C16.7432 4.27067 16.7432 4.26914 16.7432 4.26763C16.7432 4.26612 16.7432 4.26462 16.7432 4.26315C16.7432 4.26167 16.7432 4.26021 16.7432 4.25877C16.7432 4.25733 16.7432 4.25591 16.7432 4.2545C16.7432 4.2531 16.7432 4.25171 16.7432 4.25034C16.7432 4.24897 16.7432 4.24762 16.7432 4.24629C16.7432 4.24496 16.7432 4.24364 16.7432 4.24234C16.7432 4.24105 16.7432 4.23977 16.7432 4.23851C16.7432 4.23725 16.7432 4.23601 16.7432 4.23478C16.7432 4.23356 16.7432 4.23235 16.7432 4.23116C16.7432 4.22998 16.7432 4.22881 16.7432 4.22766C16.7432 4.2265 16.7432 4.22537 16.7432 4.22426C16.7432 4.22314 16.7432 4.22205 16.7432 4.22097C16.7432 4.21989 16.7432 4.21883 16.7432 4.21779C16.7432 4.21675 16.7432 4.21573 16.7432 4.21473C16.7432 4.21372 16.7432 4.21274 16.7432 4.21177C16.7432 4.2108 16.7432 4.20986 16.7432 4.20893C16.7432 4.208 16.7432 4.20709 16.7432 4.2062C16.7432 4.2053 16.7432 4.20443 16.7432 4.20358C16.7432 4.20272 16.7432 4.20189 16.7432 4.20107C16.7432 4.20025 16.7432 4.19946 16.7432 4.19868C16.7432 4.1979 16.7432 4.19714 16.7432 4.1964C16.7432 4.19566 16.7432 4.19493 16.7432 4.19423C16.7432 4.19353 16.7432 4.19284 16.7432 4.19218C16.7432 4.19151 16.7432 4.19087 16.7432 4.19024C16.7432 4.18961 16.7432 4.18901 16.7432 4.18842C16.7432 4.18783 16.7432 4.18726 16.7432 4.18671C16.7432 4.18616 16.7432 4.18563 16.7432 4.18512C16.7432 4.1846 16.7432 4.18411 16.7432 4.18364C16.7432 4.18317 16.7432 4.18271 16.7432 4.18228C16.7432 4.18185 16.7432 4.18143 16.7432 4.18104C16.7432 4.18064 16.7432 4.18026 16.7432 4.17991C16.7432 4.17955 16.7432 4.17921 16.7432 4.1789C16.7432 4.17858 16.7432 4.17828 16.7432 4.17801C16.7432 4.17773 16.7432 4.17747 16.7432 4.17723C16.7432 4.17699 16.7432 4.17677 16.7432 4.17657C16.7432 4.17638 16.7432 4.1762 16.7432 4.17604C16.7432 4.17588 16.7432 4.17574 16.7432 4.17562C16.7432 4.1755 16.7432 4.1754 16.7432 4.17532C16.7432 4.17524 16.7432 4.17518 16.7432 4.17514C16.7432 4.1751 16.7432 4.17508 15.7432 4.17508C14.7432 4.17508 14.7432 4.1751 14.7432 4.17514C14.7432 4.17518 14.7432 4.17524 14.7432 4.17532C14.7432 4.1754 14.7432 4.1755 14.7432 4.17562C14.7432 4.17574 14.7432 4.17588 14.7432 4.17604C14.7432 4.1762 14.7432 4.17638 14.7432 4.17657C14.7432 4.17677 14.7432 4.17699 14.7432 4.17723C14.7432 4.17747 14.7432 4.17773 14.7432 4.17801C14.7432 4.17828 14.7432 4.17858 14.7432 4.1789C14.7432 4.17921 14.7432 4.17955 14.7432 4.17991C14.7432 4.18026 14.7432 4.18064 14.7432 4.18104C14.7432 4.18143 14.7432 4.18185 14.7432 4.18228C14.7432 4.18271 14.7432 4.18317 14.7432 4.18364C14.7432 4.18411 14.7432 4.1846 14.7432 4.18512C14.7432 4.18563 14.7432 4.18616 14.7432 4.18671C14.7432 4.18726 14.7432 4.18783 14.7432 4.18842C14.7432 4.18901 14.7432 4.18961 14.7432 4.19024C14.7432 4.19087 14.7432 4.19151 14.7432 4.19218C14.7432 4.19284 14.7432 4.19353 14.7432 4.19423C14.7432 4.19493 14.7432 4.19566 14.7432 4.1964C14.7432 4.19714 14.7432 4.1979 14.7432 4.19868C14.7432 4.19946 14.7432 4.20025 14.7432 4.20107C14.7432 4.20189 14.7432 4.20272 14.7432 4.20358C14.7432 4.20443 14.7432 4.2053 14.7432 4.2062C14.7432 4.20709 14.7432 4.208 14.7432 4.20893C14.7432 4.20986 14.7432 4.2108 14.7432 4.21177C14.7432 4.21274 14.7432 4.21372 14.7432 4.21473C14.7432 4.21573 14.7432 4.21675 14.7432 4.21779C14.7432 4.21883 14.7432 4.21989 14.7432 4.22097C14.7432 4.22205 14.7432 4.22314 14.7432 4.22426C14.7432 4.22537 14.7432 4.2265 14.7432 4.22766C14.7432 4.22881 14.7432 4.22998 14.7432 4.23116C14.7432 4.23235 14.7432 4.23356 14.7432 4.23478C14.7432 4.23601 14.7432 4.23725 14.7432 4.23851C14.7432 4.23977 14.7432 4.24105 14.7432 4.24234C14.7432 4.24364 14.7432 4.24496 14.7432 4.24629C14.7432 4.24762 14.7432 4.24897 14.7432 4.25034C14.7432 4.25171 14.7432 4.2531 14.7432 4.2545C14.7432 4.25591 14.7432 4.25733 14.7432 4.25877C14.7432 4.26021 14.7432 4.26167 14.7432 4.26315C14.7432 4.26462 14.7432 4.26612 14.7432 4.26763C14.7432 4.26914 14.7432 4.27067 14.7432 4.27222C14.7432 4.27376 14.7432 4.27533 14.7432 4.27691C14.7432 4.27849 14.7432 4.28009 14.7432 4.28171C14.7432 4.28333 14.7432 4.28496 14.7432 4.28662C14.7432 4.28827 14.7432 4.28994 14.7432 4.29163C14.7432 4.29331 14.7432 4.29502 14.7432 4.29674C14.7432 4.29847 14.7432 4.3002 14.7432 4.30196C14.7432 4.30372 14.7432 4.30549 14.7432 4.30729C14.7432 4.30908 14.7432 4.31089 14.7432 4.31271C14.7432 4.31454 14.7432 4.31638 14.7432 4.31824C14.7432 4.32011 14.7432 4.32198 14.7432 4.32388C14.7432 4.32577 14.7432 4.32769 14.7432 4.32962C14.7432 4.33154 14.7432 4.33349 14.7432 4.33545C14.7432 4.33742 14.7432 4.3394 14.7432 4.3414C14.7432 4.34339 14.7432 4.34541 14.7432 4.34744C14.7432 4.34947 14.7432 4.35152 14.7432 4.35358C14.7432 4.35565 14.7432 4.35773 14.7432 4.35983C14.7432 4.36192 14.7432 4.36404 14.7432 4.36617C14.7432 4.3683 14.7432 4.37045 14.7432 4.37262C14.7432 4.37478 14.7432 4.37696 14.7432 4.37916C14.7432 4.38136 14.7432 4.38358 14.7432 4.38581C14.7432 4.38804 14.7432 4.39029 14.7432 4.39255C14.7432 4.39482 14.7432 4.3971 14.7432 4.39939C14.7432 4.40169 14.7432 4.40401 14.7432 4.40634C14.7432 4.40867 14.7432 4.41101 14.7432 4.41338C14.7432 4.41574 14.7432 4.41812 14.7432 4.42051C14.7432 4.42291 14.7432 4.42532 14.7432 4.42775C14.7432 4.43018 14.7432 4.43262 14.7432 4.43508C14.7432 4.43754 14.7432 4.44002 14.7432 4.44251C14.7432 4.445 14.7432 4.44751 14.7432 4.45003C14.7432 4.45256 14.7432 4.4551 14.7432 4.45765C14.7432 4.46021 14.7432 4.46278 14.7432 4.46537C14.7432 4.46796 14.7432 4.47056 14.7432 4.47318C14.7432 4.4758 14.7432 4.47844 14.7432 4.48109C14.7432 4.48374 14.7432 4.48641 14.7432 4.48909C14.7432 4.49178 14.7432 4.49448 14.7432 4.49719C14.7432 4.49991 14.7432 4.50264 14.7432 4.50538C14.7432 4.50813 14.7432 4.51089 14.7432 4.51367C14.7432 4.51644 14.7432 4.51923 14.7432 4.52204C14.7432 4.52485 14.7432 4.52767 14.7432 4.53051C14.7432 4.53335 14.7432 4.53621 14.7432 4.53908C14.7432 4.54195 14.7432 4.54483 14.7432 4.54773C14.7432 4.55063 14.7432 4.55355 14.7432 4.55648C14.7432 4.55941 14.7432 4.56236 14.7432 4.56532C14.7432 4.56828 14.7432 4.57126 14.7432 4.57425C14.7432 4.57724 14.7432 4.58025 14.7432 4.58327C14.7432 4.58629 14.7432 4.58933 14.7432 4.59238C14.7432 4.59543 14.7432 4.5985 14.7432 4.60158C14.7432 4.60466 14.7432 4.60776 14.7432 4.61087C14.7432 4.61399 14.7432 4.61711 14.7432 4.62025C14.7432 4.6234 14.7432 4.62655 14.7432 4.62972C14.7432 4.6329 14.7432 4.63608 14.7432 4.63928C14.7432 4.64248 14.7432 4.6457 14.7432 4.64893C14.7432 4.65216 14.7432 4.65541 14.7432 4.65867C14.7432 4.66193 14.7432 4.6652 14.7432 4.66849C14.7432 4.67178 14.7432 4.67508 14.7432 4.6784C14.7432 4.68172 14.7432 4.68505 14.7432 4.6884C14.7432 4.69175 14.7432 4.69511 14.7432 4.69848C14.7432 4.70186 14.7432 4.70525 14.7432 4.70865C14.7432 4.71206 14.7432 4.71548 14.7432 4.71891C14.7432 4.72235 14.7432 4.72579 14.7432 4.72925C14.7432 4.73272 14.7432 4.73619 14.7432 4.73968C14.7432 4.74317 14.7432 4.74668 14.7432 4.7502C14.7432 4.75371 14.7432 4.75725 14.7432 4.76079C14.7432 4.76434 14.7432 4.7679 14.7432 4.77148C14.7432 4.77505 14.7432 4.77864 14.7432 4.78224C14.7432 4.78584 14.7432 4.78946 14.7432 4.79309C14.7432 4.79672 14.7432 4.80037 14.7432 4.80402C14.7432 4.80768 14.7432 4.81136 14.7432 4.81504C14.7432 4.81873 14.7432 4.82243 14.7432 4.82614C14.7432 4.82985 14.7432 4.83358 14.7432 4.83732C14.7432 4.84106 14.7432 4.84482 14.7432 4.84858C14.7432 4.85235 14.7432 4.85613 14.7432 4.85993C14.7432 4.86372 14.7432 4.86753 14.7432 4.87135C14.7432 4.87517 14.7432 4.87901 14.7432 4.88286C14.7432 4.88671 14.7432 4.89057 14.7432 4.89445C14.7432 4.89832 14.7432 4.90221 14.7432 4.90611C14.7432 4.91001 14.7432 4.91393 14.7432 4.91786C14.7432 4.92179 14.7432 4.92573 14.7432 4.92969C14.7432 4.93364 14.7432 4.93761 14.7432 4.94159C14.7432 4.94557 14.7432 4.94957 14.7432 4.95357C14.7432 4.95758 14.7432 4.9616 14.7432 4.96564C14.7432 4.96967 14.7432 4.97372 14.7432 4.97778C14.7432 4.98184 14.7432 4.98591 14.7432 4.99C14.7432 4.99408 14.7432 4.99818 14.7432 5.00229C14.7432 5.0064 14.7432 5.01053 14.7432 5.01467C14.7432 5.0188 14.7432 5.02295 14.7432 5.02711C14.7432 5.03128 14.7432 5.03545 14.7432 5.03964C14.7432 5.04383 14.7432 5.04803 14.7432 5.05224C14.7432 5.05646 14.7432 5.06068 14.7432 5.06492C14.7432 5.06916 14.7432 5.07341 14.7432 5.07767C14.7432 5.08194 14.7432 5.08621 14.7432 5.0905C14.7432 5.09479 14.7432 5.09909 14.7432 5.1034C14.7432 5.10772 14.7432 5.11204 14.7432 5.11638C14.7432 5.12072 14.7432 5.12507 14.7432 5.12943C14.7432 5.13379 14.7432 5.13817 14.7432 5.14256C14.7432 5.14694 14.7432 5.15134 14.7432 5.15575C14.7432 5.16016 14.7432 5.16459 14.7432 5.16902C14.7432 5.17346 14.7432 5.17791 14.7432 5.18237C14.7432 5.18683 14.7432 5.1913 14.7432 5.19578C14.7432 5.20026 14.7432 5.20476 14.7432 5.20927C14.7432 5.21378 14.7432 5.2183 14.7432 5.22283C14.7432 5.22736 14.7432 5.2319 14.7432 5.23646C14.7432 5.24101 14.7432 5.24558 14.7432 5.25016C14.7432 5.25474 14.7432 5.25933 14.7432 5.26393C14.7432 5.26853 14.7432 5.27314 14.7432 5.27777C14.7432 5.28239 14.7432 5.28703 14.7432 5.29168C14.7432 5.29633 14.7432 5.30099 14.7432 5.30566C14.7432 5.31033 14.7432 5.31502 14.7432 5.31971C14.7432 5.32441 14.7432 5.32911 14.7432 5.33383C14.7432 5.33855 14.7432 5.34328 14.7432 5.34802C14.7432 5.35276 14.7432 5.35751 14.7432 5.36227C14.7432 5.36703 14.7432 5.37181 14.7432 5.37659C14.7432 5.38138 14.7432 5.38617 14.7432 5.39098C14.7432 5.39579 14.7432 5.40061 14.7432 5.40544C14.7432 5.41027 14.7432 5.41511 14.7432 5.41996C14.7432 5.42481 14.7432 5.42968 14.7432 5.43455C14.7432 5.43943 14.7432 5.44431 14.7432 5.44921C14.7432 5.4541 14.7432 5.45901 14.7432 5.46393C14.7432 5.46885 14.7432 5.47378 14.7432 5.47872C14.7432 5.48366 14.7432 5.48861 14.7432 5.49357C14.7432 5.49853 14.7432 5.5035 14.7432 5.50848C14.7432 5.51347 14.7432 5.51846 14.7432 5.52346C14.7432 5.52847 14.7432 5.53348 14.7432 5.53851C14.7432 5.54353 14.7432 5.54857 14.7432 5.55362C14.7432 5.55866 14.7432 5.56372 14.7432 5.56879C14.7432 5.57385 14.7432 5.57893 14.7432 5.58402C14.7432 5.58911 14.7432 5.59421 14.7432 5.59932C14.7432 5.60443 14.7432 5.60955 14.7432 5.61468C14.7432 5.61981 14.7432 5.62495 14.7432 5.6301C14.7432 5.63525 14.7432 5.64041 14.7432 5.64558C14.7432 5.65075 14.7432 5.65593 14.7432 5.66112C14.7432 5.66631 14.7432 5.67151 14.7432 5.67673C14.7432 5.68194 14.7432 5.68716 14.7432 5.69239C14.7432 5.69762 14.7432 5.70286 14.7432 5.70811C14.7432 5.71337 14.7432 5.71863 14.7432 5.7239C14.7432 5.72917 14.7432 5.73445 14.7432 5.73974C14.7432 5.74503 14.7432 5.75033 14.7432 5.75565C14.7432 5.76096 14.7432 5.76628 14.7432 5.77161C14.7432 5.77694 14.7432 5.78228 14.7432 5.78763C14.7432 5.79298 14.7432 5.79834 14.7432 5.8037C14.7432 5.80907 14.7432 5.81445 14.7432 5.81984C14.7432 5.82523 14.7432 5.83063 14.7432 5.83603C14.7432 5.84144 14.7432 5.84686 14.7432 5.85228C14.7432 5.85771 14.7432 5.86314 14.7432 5.86859C14.7432 5.87403 14.7432 5.87949 14.7432 5.88495C14.7432 5.89041 14.7432 5.89589 14.7432 5.90137C14.7432 5.90685 14.7432 5.91234 14.7432 5.91784C14.7432 5.92334 14.7432 5.92885 14.7432 5.93437C14.7432 5.93989 14.7432 5.94542 14.7432 5.95096C14.7432 5.95649 14.7432 5.96204 14.7432 5.9676C14.7432 5.97315 14.7432 5.97872 14.7432 5.98429C14.7432 5.98986 14.7432 5.99544 14.7432 6.00104C14.7432 6.00663 14.7432 6.01223 14.7432 6.01784C14.7432 6.02345 14.7432 6.02906 14.7432 6.03469C14.7432 6.04032 14.7432 6.04595 14.7432 6.0516C14.7432 6.05724 14.7432 6.06289 14.7432 6.06856C14.7432 6.07422 14.7432 6.07989 14.7432 6.08557C14.7432 6.09125 14.7432 6.09693 14.7432 6.10263C14.7432 6.10833 14.7432 6.11403 14.7432 6.11974C14.7432 6.12546 14.7432 6.13118 14.7432 6.13691C14.7432 6.14264 14.7432 6.14838 14.7432 6.15413C14.7432 6.15987 14.7432 6.16563 14.7432 6.17139C14.7432 6.17716 14.7432 6.18293 14.7432 6.18871C14.7432 6.19449 14.7432 6.20028 14.7432 6.20608C14.7432 6.21187 14.7432 6.21768 14.7432 6.22349C14.7432 6.2293 14.7432 6.23513 14.7432 6.24096C14.7432 6.24679 14.7432 6.25262 14.7432 6.25847C14.7432 6.26432 14.7432 6.27017 14.7432 6.27603C14.7432 6.28189 14.7432 6.28776 14.7432 6.29364C14.7432 6.29952 14.7432 6.3054 14.7432 6.3113C14.7432 6.31719 14.7432 6.32309 14.7432 6.329C14.7432 6.33491 14.7432 6.34083 14.7432 6.34676C14.7432 6.35268 14.7432 6.35861 14.7432 6.36455C14.7432 6.37049 14.7432 6.37644 14.7432 6.3824C14.7432 6.38835 14.7432 6.39432 14.7432 6.40029C14.7432 6.40626 14.7432 6.41224 14.7432 6.41822C14.7432 6.42421 14.7432 6.4302 14.7432 6.43621C14.7432 6.44221 14.7432 6.44822 14.7432 6.45423C14.7432 6.46025 14.7432 6.46627 14.7432 6.4723C14.7432 6.47833 14.7432 6.48437 14.7432 6.49042C14.7432 6.49646 14.7432 6.50252 14.7432 6.50858C14.7432 6.51464 14.7432 6.5207 14.7432 6.52678C14.7432 6.53285 14.7432 6.53893 14.7432 6.54502C14.7432 6.55111 14.7432 6.55721 14.7432 6.56331C14.7432 6.56941 14.7432 6.57552 14.7432 6.58164C14.7432 6.58776 14.7432 6.59388 14.7432 6.60001C14.7432 6.60614 14.7432 6.61228 14.7432 6.61843C14.7432 6.62457 14.7432 6.63072 14.7432 6.63688C14.7432 6.64304 14.7432 6.64921 14.7432 6.65538C14.7432 6.66155 14.7432 6.66773 14.7432 6.67392C14.7432 6.6801 14.7432 6.6863 14.7432 6.6925C14.7432 6.6987 14.7432 6.7049 14.7432 6.71111C14.7432 6.71733 14.7432 6.72355 14.7432 6.72977C14.7432 6.736 14.7432 6.74223 14.7432 6.74847C14.7432 6.75471 14.7432 6.76095 14.7432 6.7672C14.7432 6.77346 14.7432 6.77971 14.7432 6.78598C14.7432 6.79224 14.7432 6.79851 14.7432 6.80479C14.7432 6.81107 14.7432 6.81735 14.7432 6.82364C14.7432 6.82993 14.7432 6.83623 14.7432 6.84253C14.7432 6.84883 14.7432 6.85514 14.7432 6.86146C14.7432 6.86777 14.7432 6.87409 14.7432 6.88042C14.7432 6.88675 14.7432 6.89308 14.7432 6.89942C14.7432 6.90576 14.7432 6.9121 14.7432 6.91845C14.7432 6.92481 14.7432 6.93116 14.7432 6.93753C14.7432 6.94389 14.7432 6.95026 14.7432 6.95663C14.7432 6.96301 14.7432 6.96939 14.7432 6.97577C14.7432 6.98216 14.7432 6.98855 14.7432 6.99495C14.7432 7.00135 14.7432 7.00775 14.7432 7.01416C14.7432 7.02057 14.7432 7.02699 14.7432 7.03341C14.7432 7.03983 14.7432 7.04626 14.7432 7.05269C14.7432 7.05912 14.7432 7.06556 14.7432 7.072C14.7432 7.07844 14.7432 7.08489 14.7432 7.09135C14.7432 7.0978 14.7432 7.10426 14.7432 7.11072C14.7432 7.11719 14.7432 7.12366 14.7432 7.13014C14.7432 7.13661 14.7432 7.14309 14.7432 7.14958C14.7432 7.15606 14.7432 7.16256 14.7432 7.16905C14.7432 7.17555 14.7432 7.18205 14.7432 7.18856C14.7432 7.19507 14.7432 7.20158 14.7432 7.2081C14.7432 7.21461 14.7432 7.22114 14.7432 7.22766C14.7432 7.23419 14.7432 7.24073 14.7432 7.24726C14.7432 7.2538 14.7432 7.26034 14.7432 7.26689C14.7432 7.27344 14.7432 7.27999 14.7432 7.28655C14.7432 7.29311 14.7432 7.29967 14.7432 7.30624C14.7432 7.3128 14.7432 7.31938 14.7432 7.32595C14.7432 7.33253 14.7432 7.33911 14.7432 7.3457C14.7432 7.35228 14.7432 7.35887 14.7432 7.36547C14.7432 7.37207 14.7432 7.37867 14.7432 7.38527C14.7432 7.39188 14.7432 7.39849 14.7432 7.4051C14.7432 7.41171 14.7432 7.41833 14.7432 7.42495C14.7432 7.43158 14.7432 7.43821 14.7432 7.44484C14.7432 7.45147 14.7432 7.45811 14.7432 7.46475C14.7432 7.47139 14.7432 7.47803 14.7432 7.48468C14.7432 7.49133 14.7432 7.49798 14.7432 7.50464C14.7432 7.5113 14.7432 7.51796 14.7432 7.52463C14.7432 7.5313 14.7432 7.53797 14.7432 7.54464C14.7432 7.55132 14.7432 7.55799 14.7432 7.56468C14.7432 7.57136 14.7432 7.57805 14.7432 7.58474C14.7432 7.59143 14.7432 7.59812 14.7432 7.60482C14.7432 7.61152 14.7432 7.61823 14.7432 7.62493C14.7432 7.63164 14.7432 7.63835 14.7432 7.64507C14.7432 7.65178 14.7432 7.6585 14.7432 7.66522C14.7432 7.67194 14.7432 7.67867 14.7432 7.6854C14.7432 7.69213 14.7432 7.69886 14.7432 7.7056C14.7432 7.71234 14.7432 7.71908 14.7432 7.72582C14.7432 7.73257 14.7432 7.73931 14.7432 7.74607C14.7432 7.75282 14.7432 7.75957 14.7432 7.76633C14.7432 7.77309 14.7432 7.77985 14.7432 7.78662C14.7432 7.79338 14.7432 7.80015 14.7432 7.80693C14.7432 7.8137 14.7432 7.82047 14.7432 7.82725C14.7432 7.83403 14.7432 7.84082 14.7432 7.8476C14.7432 7.85439 14.7432 7.86118 14.7432 7.86797C14.7432 7.87476 14.7432 7.88156 14.7432 7.88835C14.7432 7.89515 14.7432 7.90195 14.7432 7.90876C14.7432 7.91556 14.7432 7.92237 14.7432 7.92918C14.7432 7.93599 14.7432 7.94281 14.7432 7.94963C14.7432 7.95644 14.7432 7.96326 14.7432 7.97009C14.7432 7.97691 14.7432 7.98373 14.7432 7.99056C14.7432 7.99739 14.7432 8.00422 14.7432 8.01106C14.7432 8.01789 14.7432 8.02473 14.7432 8.03157C14.7432 8.03841 14.7432 8.04525 14.7432 8.0521C14.7432 8.05894 14.7432 8.06579 14.7432 8.07264C14.7432 8.07949 14.7432 8.08635 14.7432 8.0932C14.7432 8.10006 14.7432 8.10692 14.7432 8.11378C14.7432 8.12064 14.7432 8.1275 14.7432 8.13437C14.7432 8.14123 14.7432 8.1481 14.7432 8.15497C14.7432 8.16184 14.7432 8.16872 14.7432 8.17559C14.7432 8.18247 14.7432 8.18935 14.7432 8.19623C14.7432 8.20311 14.7432 8.20999 14.7432 8.21687C14.7432 8.22376 14.7432 8.23065 14.7432 8.23754C14.7432 8.24442 14.7432 8.25132 14.7432 8.25821C14.7432 8.2651 14.7432 8.272 14.7432 8.2789C14.7432 8.28579 14.7432 8.29269 14.7432 8.29959C14.7432 8.3065 14.7432 8.3134 14.7432 8.32031C14.7432 8.32721 14.7432 8.33412 14.7432 8.34103C14.7432 8.34794 14.7432 8.35485 14.7432 8.36176C14.7432 8.36868 14.7432 8.37559 14.7432 8.38251C14.7432 8.38942 14.7432 8.39634 14.7432 8.40326C14.7432 8.41018 14.7432 8.41711 14.7432 8.42403C14.7432 8.43095 14.7432 8.43788 14.7432 8.44481C14.7432 8.45173 14.7432 8.45866 14.7432 8.46559C14.7432 8.47252 14.7432 8.47945 14.7432 8.48638C14.7432 8.49332 14.7432 8.50025 14.7432 8.50719C14.7432 8.51412 14.7432 8.52106 14.7432 8.528C14.7432 8.53494 14.7432 8.54188 14.7432 8.54882C14.7432 8.55576 14.7432 8.56271 14.7432 8.56965C14.7432 8.57659 14.7432 8.58354 14.7432 8.59048C14.7432 8.59743 14.7432 8.60438 14.7432 8.61133C14.7432 8.61828 14.7432 8.62523 14.7432 8.63218C14.7432 8.63913 14.7432 8.64608 14.7432 8.65303C14.7432 8.65999 14.7432 8.66694 14.7432 8.67389C14.7432 8.68085 14.7432 8.68781 14.7432 8.69476C14.7432 8.70172 14.7432 8.70868 14.7432 8.71564C14.7432 8.72259 14.7432 8.72955 14.7432 8.73651C14.7432 8.74347 14.7432 8.75044 14.7432 8.7574C14.7432 8.76436 14.7432 8.77132 14.7432 8.77829C14.7432 8.78525 14.7432 8.79221 14.7432 8.79918C14.7432 8.80614 14.7432 8.81311 14.7432 8.82007C14.7432 8.82704 14.7432 8.834 14.7432 8.84097C14.7432 8.84794 14.7432 8.8549 14.7432 8.86187C14.7432 8.86884 14.7432 8.87581 14.7432 8.88278C14.7432 8.88975 14.7432 8.89671 14.7432 8.90368C14.7432 8.91065 14.7432 8.91762 14.7432 8.92459C14.7432 8.93156 14.7432 8.93853 14.7432 8.9455C14.7432 8.95247 14.7432 8.95944 14.7432 8.96641C14.7432 8.97338 14.7432 8.98035 14.7432 8.98733C14.7432 8.9943 14.7432 9.00127 14.7432 9.00824C14.7432 9.01521 14.7432 9.02218 14.7432 9.02915C14.7432 9.03612 14.7432 9.04309 14.7432 9.05007C14.7432 9.05704 14.7432 9.06401 14.7432 9.07098C14.7432 9.07795 14.7432 9.08492 14.7432 9.09189C14.7432 9.09886 14.7432 9.10583 14.7432 9.1128C14.7432 9.11977 14.7432 9.12674 14.7432 9.13371C14.7432 9.14068 14.7432 9.14765 14.7432 9.15462C14.7432 9.16159 14.7432 9.16855 14.7432 9.17552C14.7432 9.18249 14.7432 9.18946 14.7432 9.19642C14.7432 9.20339 14.7432 9.21036 14.7432 9.21732C14.7432 9.22429 14.7432 9.23126 14.7432 9.23822C14.7432 9.24519 14.7432 9.25215 14.7432 9.25911C14.7432 9.26608 14.7432 9.27304 14.7432 9.28C14.7432 9.28697 14.7432 9.29393 14.7432 9.30089C14.7432 9.30785 14.7432 9.31481 14.7432 9.32177C14.7432 9.32873 14.7432 9.33569 14.7432 9.34264C14.7432 9.3496 14.7432 9.35656 14.7432 9.36351C14.7432 9.37047 14.7432 9.37742 14.7432 9.38438C14.7432 9.39133 14.7432 9.39828 14.7432 9.40524C14.7432 9.41219 14.7432 9.41914 14.7432 9.42609C14.7432 9.43304 14.7432 9.43999 14.7432 9.44693C14.7432 9.45388 14.7432 9.46083 14.7432 9.46777C14.7432 9.47472 14.7432 9.48166 14.7432 9.4886C14.7432 9.49554 14.7432 9.50249 14.7432 9.50943C14.7432 9.51637 14.7432 9.5233 14.7432 9.53024C14.7432 9.53718 14.7432 9.54411 14.7432 9.55105C14.7432 9.55798 14.7432 9.56491 14.7432 9.57185C14.7432 9.57878 14.7432 9.58571 14.7432 9.59263C14.7432 9.59956 14.7432 9.60649 14.7432 9.61341C14.7432 9.62034 14.7432 9.62726 14.7432 9.63418C14.7432 9.6411 14.7432 9.64802 14.7432 9.65494C14.7432 9.66186 14.7432 9.66878 14.7432 9.67569C14.7432 9.68261 14.7432 9.68952 14.7432 9.69643C14.7432 9.70334 14.7432 9.71025 14.7432 9.71716C14.7432 9.72406 14.7432 9.73097 14.7432 9.73787C14.7432 9.74477 14.7432 9.75168 14.7432 9.75857C14.7432 9.76547 14.7432 9.77237 14.7432 9.77927C14.7432 9.78616 14.7432 9.79305 14.7432 9.79994C14.7432 9.80684 14.7432 9.81372 14.7432 9.82061C14.7432 9.8275 14.7432 9.83438 14.7432 9.84126C14.7432 9.84815 14.7432 9.85503 14.7432 9.8619C14.7432 9.86878 14.7432 9.87565 14.7432 9.88253C14.7432 9.8894 14.7432 9.89627 14.7432 9.90314C14.7432 9.91001 14.7432 9.91687 14.7432 9.92373C14.7432 9.9306 14.7432 9.93746 14.7432 9.94431C14.7432 9.95117 14.7432 9.95803 14.7432 9.96488C14.7432 9.97173 14.7432 9.97858 14.7432 9.98543C14.7432 9.99228 14.7432 9.99912 14.7432 10.006C14.7432 10.0128 14.7432 10.0196 14.7432 10.0265C14.7432 10.0333 14.7432 10.0402 14.7432 10.047C14.7432 10.0538 14.7432 10.0606 14.7432 10.0675C14.7432 10.0743 14.7432 10.0811 14.7432 10.0879C14.7432 10.0948 14.7432 10.1016 14.7432 10.1084C14.7432 10.1152 14.7432 10.122 14.7432 10.1288C14.7432 10.1356 14.7432 10.1424 14.7432 10.1492C14.7432 10.156 14.7432 10.1628 14.7432 10.1696C14.7432 10.1764 14.7432 10.1832 14.7432 10.19C14.7432 10.1968 14.7432 10.2036 14.7432 10.2103C14.7432 10.2171 14.7432 10.2239 14.7432 10.2307C14.7432 10.2375 14.7432 10.2442 14.7432 10.251C14.7432 10.2578 14.7432 10.2645 14.7432 10.2713C14.7432 10.2781 14.7432 10.2848 14.7432 10.2916C14.7432 10.2983 14.7432 10.3051 14.7432 10.3118C14.7432 10.3186 14.7432 10.3253 14.7432 10.332C14.7432 10.3388 14.7432 10.3455 14.7432 10.3523C14.7432 10.359 14.7432 10.3657 14.7432 10.3724C14.7432 10.3792 14.7432 10.3859 14.7432 10.3926C14.7432 10.3993 14.7432 10.406 14.7432 10.4127C14.7432 10.4195 14.7432 10.4262 14.7432 10.4329C14.7432 10.4396 14.7432 10.4463 14.7432 10.453C14.7432 10.4597 14.7432 10.4663 14.7432 10.473C14.7432 10.4797 14.7432 10.4864 14.7432 10.4931C14.7432 10.4998 14.7432 10.5064 14.7432 10.5131C14.7432 10.5198 14.7432 10.5264 14.7432 10.5331C14.7432 10.5398 14.7432 10.5464 14.7432 10.5531C14.7432 10.5597 14.7432 10.5664 14.7432 10.573C14.7432 10.5797 14.7432 10.5863 14.7432 10.5929C14.7432 10.5996 14.7432 10.6062 14.7432 10.6128C14.7432 10.6194 14.7432 10.6261 14.7432 10.6327C14.7432 10.6393 14.7432 10.6459 14.7432 10.6525C14.7432 10.6591 14.7432 10.6657 14.7432 10.6723C14.7432 10.6789 14.7432 10.6855 14.7432 10.6921C14.7432 10.6987 14.7432 10.7053 14.7432 10.7119C14.7432 10.7185 14.7432 10.725 14.7432 10.7316C14.7432 10.7382 14.7432 10.7447 14.7432 10.7513C14.7432 10.7579 14.7432 10.7644 14.7432 10.771C14.7432 10.7775 14.7432 10.7841 14.7432 10.7906C14.7432 10.7971 14.7432 10.8037 14.7432 10.8102C14.7432 10.8167 14.7432 10.8233 14.7432 10.8298C14.7432 10.8363 14.7432 10.8428 14.7432 10.8493C14.7432 10.8559 14.7432 10.8624 14.7432 10.8689C14.7432 10.8754 14.7432 10.8819 14.7432 10.8883C14.7432 10.8948 14.7432 10.9013 14.7432 10.9078C14.7432 10.9143 14.7432 10.9208 14.7432 10.9272C14.7432 10.9337 14.7432 10.9402 14.7432 10.9466C14.7432 10.9531 14.7432 10.9595 14.7432 10.966C14.7432 10.9724 14.7432 10.9789 14.7432 10.9853C14.7432 10.9917 14.7432 10.9982 14.7432 11.0046C14.7432 11.011 14.7432 11.0174 14.7432 11.0238C14.7432 11.0303 14.7432 11.0367 14.7432 11.0431C14.7432 11.0495 14.7432 11.0559 14.7432 11.0623C14.7432 11.0686 14.7432 11.075 14.7432 11.0814C14.7432 11.0878 14.7432 11.0942 14.7432 11.1005C14.7432 11.1069 14.7432 11.1133 14.7432 11.1196C14.7432 11.126 14.7432 11.1323 14.7432 11.1387C14.7432 11.145 14.7432 11.1513 14.7432 11.1577C14.7432 11.164 14.7432 11.1703 14.7432 11.1767C14.7432 11.183 14.7432 11.1893 14.7432 11.1956C14.7432 11.2019 14.7432 11.2082 14.7432 11.2145C14.7432 11.2208 14.7432 11.2271 14.7432 11.2334C14.7432 11.2396 14.7432 11.2459 14.7432 11.2522C14.7432 11.2585 14.7432 11.2647 14.7432 11.271C14.7432 11.2772 14.7432 11.2835 14.7432 11.2897C14.7432 11.296 14.7432 11.3022 14.7432 11.3084C14.7432 11.3147 14.7432 11.3209 14.7432 11.3271C14.7432 11.3333 14.7432 11.3395 14.7432 11.3457C14.7432 11.3519 14.7432 11.3581 14.7432 11.3643C14.7432 11.3705 14.7432 11.3767 14.7432 11.3829C14.7432 11.3891 14.7432 11.3952 14.7432 11.4014C14.7432 11.4076 14.7432 11.4137 14.7432 11.4199C14.7432 11.426 14.7432 11.4322 14.7432 11.4383C14.7432 11.4444 14.7432 11.4506 14.7432 11.4567C14.7432 11.4628 14.7432 11.4689 14.7432 11.475C14.7432 11.4811 14.7432 11.4872 14.7432 11.4933C14.7432 11.4994 14.7432 11.5055 14.7432 11.5116C14.7432 11.5177 14.7432 11.5238 14.7432 11.5298C14.7432 11.5359 14.7432 11.5419 14.7432 11.548C14.7432 11.554 14.7432 11.5601 14.7432 11.5661C14.7432 11.5722 14.7432 11.5782 14.7432 11.5842C14.7432 11.5902 14.7432 11.5962 14.7432 11.6023C14.7432 11.6083 14.7432 11.6143 14.7432 11.6202C14.7432 11.6262 14.7432 11.6322 14.7432 11.6382C14.7432 11.6442 14.7432 11.6501 14.7432 11.6561C14.7432 11.6621 14.7432 11.668 14.7432 11.674C14.7432 11.6799 14.7432 11.6859 14.7432 11.6918C14.7432 11.6977 14.7432 11.7036 14.7432 11.7096C14.7432 11.7155 14.7432 11.7214 14.7432 11.7273C14.7432 11.7332 14.7432 11.7391 14.7432 11.745C14.7432 11.7508 14.7432 11.7567 14.7432 11.7626C14.7432 11.7684 14.7432 11.7743 14.7432 11.7802C14.7432 11.786 14.7432 11.7919 14.7432 11.7977C14.7432 11.8035 14.7432 11.8094 14.7432 11.8152C14.7432 11.821 14.7432 11.8268 14.7432 11.8326C14.7432 11.8384 14.7432 11.8442 14.7432 11.85C14.7432 11.8558 14.7432 11.8616 14.7432 11.8673C14.7432 11.8731 14.7432 11.8789 14.7432 11.8846C14.7432 11.8904 14.7432 11.8961 14.7432 11.9018C14.7432 11.9076 14.7432 11.9133 14.7432 11.919C14.7432 11.9247 14.7432 11.9305 14.7432 11.9362C14.7432 11.9419 14.7432 11.9476 14.7432 11.9532C14.7432 11.9589 14.7432 11.9646 14.7432 11.9703C14.7432 11.9759 14.7432 11.9816 14.7432 11.9873C14.7432 11.9929 14.7432 11.9985 14.7432 12.0042C14.7432 12.0098 14.7432 12.0154 14.7432 12.0211C14.7432 12.0267 14.7432 12.0323 14.7432 12.0379C14.7432 12.0435 14.7432 12.0491 14.7432 12.0546C14.7432 12.0602 14.7432 12.0658 14.7432 12.0714C14.7432 12.0769 14.7432 12.0825 14.7432 12.088C14.7432 12.0936 14.7432 12.0991 14.7432 12.1046C14.7432 12.1101 14.7432 12.1157 14.7432 12.1212C14.7432 12.1267 14.7432 12.1322 14.7432 12.1377C14.7432 12.1431 14.7432 12.1486 14.7432 12.1541C14.7432 12.1596 14.7432 12.165 14.7432 12.1705C14.7432 12.1759 14.7432 12.1814 14.7432 12.1868C14.7432 12.1922 14.7432 12.1977 14.7432 12.2031H16.7432ZM16.1871 3.27903L10.5458 0.484011L9.6579 2.27611L15.2992 5.07113L16.1871 3.27903ZM7.29633 2.27611C8.03938 1.90796 8.91485 1.90796 9.6579 2.27611L10.5458 0.484011C9.24327 -0.161337 7.71096 -0.161337 6.40842 0.484012L7.29633 2.27611ZM11.2019 8.27522H8.47712V10.2752H11.2019V8.27522ZM8.47712 8.27522H5.75234V10.2752H8.47712V8.27522ZM9.47712 11.9751V9.27522H7.47712V11.9751H9.47712ZM9.47712 9.27522V6.57508H7.47712V9.27522H9.47712Z" fill="white"/>
</svg>
