<svg width="22" height="22" viewBox="0 0 22 22" fill="none" xmlns="http://www.w3.org/2000/svg">
<path d="M19.94 9.79999L18.2 8.06119V3.79999C18.2 3.13999 17.66 2.59999 17 2.59999H15.8C15.14 2.59999 14.6 3.13999 14.6 3.79999V4.46359L12.2 2.06599C11.8724 1.75639 11.5724 1.39999 11 1.39999C10.4276 1.39999 10.1276 1.75639 9.80002 2.06599L2.06002 9.79999C1.68562 10.19 1.40002 10.4744 1.40002 11C1.40002 11.6756 1.91842 12.2 2.60002 12.2H3.80002V19.4C3.80002 20.06 4.34002 20.6 5.00002 20.6H7.40002C8.06277 20.6 8.60002 20.0627 8.60002 19.4V14.6C8.60002 13.94 9.14002 13.4 9.80002 13.4H12.2C12.86 13.4 13.4 13.94 13.4 14.6V19.4C13.4 20.0627 13.3373 20.6 14 20.6H17C17.66 20.6 18.2 20.06 18.2 19.4V12.2H19.4C20.0816 12.2 20.6 11.6756 20.6 11C20.6 10.4744 20.3144 10.19 19.94 9.79999Z" stroke="white" stroke-width="2" stroke-linejoin="round"/>
</svg>
