<svg width="33" height="32" viewBox="0 0 33 32" fill="none" xmlns="http://www.w3.org/2000/svg">
<g id="ic:outline-payments">
<path id="Vector" d="M25.8333 18.6666V7.99992C25.8333 6.53325 24.6333 5.33325 23.1667 5.33325H4.5C3.03333 5.33325 1.83333 6.53325 1.83333 7.99992V18.6666C1.83333 20.1333 3.03333 21.3333 4.5 21.3333H23.1667C24.6333 21.3333 25.8333 20.1333 25.8333 18.6666ZM23.1667 18.6666H4.5V7.99992H23.1667V18.6666ZM13.8333 9.33325C11.62 9.33325 9.83333 11.1199 9.83333 13.3333C9.83333 15.5466 11.62 17.3333 13.8333 17.3333C16.0467 17.3333 17.8333 15.5466 17.8333 13.3333C17.8333 11.1199 16.0467 9.33325 13.8333 9.33325ZM31.1667 9.33325V23.9999C31.1667 25.4666 29.9667 26.6666 28.5 26.6666H5.83333V23.9999H28.5V9.33325H31.1667Z" fill="white"/>
</g>
</svg>
