<svg width="33" height="32" viewBox="0 0 33 32" fill="none" xmlns="http://www.w3.org/2000/svg">
<g id="icons8:services">
<path id="Vector" d="M22 2.5V3.906C21.1802 4.04679 20.4016 4.3671 19.72 4.844L18.688 3.874L17.313 5.344L18.313 6.281C17.8555 6.94769 17.5462 7.70469 17.406 8.501H16V10.501H17.406C17.552 11.331 17.88 12.087 18.344 12.751L17.281 13.781L18.721 15.221L19.751 14.157C20.415 14.621 21.171 14.949 22.001 15.095V16.5H24.001V15.094C24.7972 14.9541 25.5542 14.6452 26.221 14.188L27.157 15.188L28.627 13.812L27.657 12.782C28.127 12.112 28.447 11.337 28.595 10.5H30V8.5H28.594C28.4501 7.6903 28.1298 6.92217 27.656 6.25L28.594 5.312L27.187 3.906L26.25 4.844C25.5778 4.37017 24.8097 4.04994 24 3.906V2.5H22ZM23 5.813C23.4851 5.80981 23.966 5.903 24.4149 6.08714C24.8637 6.27129 25.2715 6.54274 25.6146 6.88573C25.9576 7.22872 26.2292 7.63643 26.4135 8.08521C26.5977 8.53398 26.6911 9.01488 26.688 9.5C26.688 11.555 25.055 13.188 23 13.188C20.945 13.188 19.312 11.555 19.312 9.5C19.312 7.445 20.945 5.812 23 5.812V5.813ZM10.03 11.718L8.188 12.468L8.906 14.278C7.95022 14.85 7.14622 15.6437 6.562 16.592L4.782 15.872L4.032 17.717L5.812 18.435C5.67152 18.9759 5.5983 19.5321 5.594 20.091C5.594 20.661 5.679 21.217 5.812 21.747L4.032 22.467L4.782 24.31L6.562 23.59C7.1409 24.5507 7.94551 25.3557 8.906 25.935L8.186 27.715L10.031 28.465L10.751 26.685C11.2919 26.8258 11.8481 26.8991 12.407 26.903C12.977 26.903 13.535 26.818 14.063 26.685L14.783 28.465L16.626 27.715L15.906 25.935C16.855 25.3516 17.6489 24.5474 18.22 23.591L20.03 24.309L20.78 22.466L18.97 21.746C19.1 21.216 19.188 20.659 19.188 20.09C19.188 19.52 19.101 18.962 18.968 18.433L20.781 17.715L20.031 15.87L18.221 16.59C17.6466 15.6441 16.8529 14.8504 15.907 14.276L16.627 12.466L14.782 11.716L14.065 13.526C13.5236 13.3864 12.9671 13.3135 12.408 13.309C11.838 13.309 11.282 13.395 10.752 13.527L10.032 11.717L10.03 11.718ZM12.406 15.31C15.069 15.31 17.186 17.43 17.186 20.092C17.188 22.755 15.069 24.904 12.406 24.904C11.7739 24.9048 11.1478 24.7809 10.5636 24.5393C9.97942 24.2978 9.44863 23.9434 9.00164 23.4964C8.55465 23.0494 8.20023 22.5186 7.95868 21.9344C7.71713 21.3502 7.59321 20.7241 7.594 20.092C7.594 17.429 9.744 15.31 12.406 15.31Z" fill="white"/>
</g>
</svg>
